<svg xmlns="http://www.w3.org/2000/svg" xmlns:xlink="http://www.w3.org/1999/xlink" width="100" zoomAndPan="magnify" viewBox="0 0 75 74.999997" height="100" preserveAspectRatio="xMidYMid meet" version="1.0"><defs><clipPath id="e5b6813fd2"><path d="M 26 10 L 66 10 L 66 65 L 26 65 Z M 26 10 " clip-rule="nonzero"/></clipPath><clipPath id="bf5be90069"><path d="M 52.011719 7.179688 L 69.292969 17.351562 L 39.570312 67.839844 L 22.292969 57.671875 Z M 52.011719 7.179688 " clip-rule="nonzero"/></clipPath><clipPath id="719d030dec"><path d="M 60.652344 12.265625 C 62.945312 13.613281 64.605469 15.820312 65.273438 18.394531 C 65.9375 20.964844 65.554688 23.699219 64.207031 25.992188 L 44.671875 59.179688 C 43.320312 61.472656 41.117188 63.132812 38.542969 63.800781 C 35.96875 64.464844 33.234375 64.082031 30.945312 62.734375 C 28.652344 61.386719 26.992188 59.179688 26.324219 56.605469 C 25.660156 54.03125 26.042969 51.300781 27.390625 49.007812 L 46.925781 15.820312 C 48.273438 13.527344 50.480469 11.867188 53.054688 11.199219 C 55.628906 10.535156 58.359375 10.917969 60.652344 12.265625 Z M 60.652344 12.265625 " clip-rule="nonzero"/></clipPath><clipPath id="0f2039cff4"><path d="M 0 0.320312 L 40 0.320312 L 40 54.558594 L 0 54.558594 Z M 0 0.320312 " clip-rule="nonzero"/></clipPath><clipPath id="d8294d2dfd"><path d="M 26.011719 -2.820312 L 43.292969 7.351562 L 13.570312 57.839844 L -3.707031 47.671875 Z M 26.011719 -2.820312 " clip-rule="nonzero"/></clipPath><clipPath id="23e5465fa8"><path d="M 34.652344 2.265625 C 36.945312 3.613281 38.605469 5.820312 39.273438 8.394531 C 39.9375 10.964844 39.554688 13.699219 38.207031 15.992188 L 18.671875 49.179688 C 17.320312 51.472656 15.117188 53.132812 12.542969 53.800781 C 9.96875 54.464844 7.234375 54.082031 4.945312 52.734375 C 2.652344 51.386719 0.992188 49.179688 0.324219 46.605469 C -0.339844 44.03125 0.0429688 41.300781 1.390625 39.007812 L 20.925781 5.820312 C 22.273438 3.527344 24.480469 1.867188 27.054688 1.199219 C 29.628906 0.535156 32.359375 0.917969 34.652344 2.265625 Z M 34.652344 2.265625 " clip-rule="nonzero"/></clipPath><clipPath id="6ba8280b3a"><rect x="0" width="40" y="0" height="55"/></clipPath><clipPath id="e65110fdc1"><path d="M 5.707031 10.832031 L 26.363281 10.832031 L 26.363281 31.488281 L 5.707031 31.488281 Z M 5.707031 10.832031 " clip-rule="nonzero"/></clipPath><clipPath id="a956e77e79"><path d="M 16.035156 10.832031 C 10.332031 10.832031 5.707031 15.457031 5.707031 21.160156 C 5.707031 26.863281 10.332031 31.488281 16.035156 31.488281 C 21.742188 31.488281 26.363281 26.863281 26.363281 21.160156 C 26.363281 15.457031 21.742188 10.832031 16.035156 10.832031 Z M 16.035156 10.832031 " clip-rule="nonzero"/></clipPath><clipPath id="1a46e95f3a"><path d="M 0.707031 0.832031 L 21.363281 0.832031 L 21.363281 21.488281 L 0.707031 21.488281 Z M 0.707031 0.832031 " clip-rule="nonzero"/></clipPath><clipPath id="418e396f8c"><path d="M 11.035156 0.832031 C 5.332031 0.832031 0.707031 5.457031 0.707031 11.160156 C 0.707031 16.863281 5.332031 21.488281 11.035156 21.488281 C 16.742188 21.488281 21.363281 16.863281 21.363281 11.160156 C 21.363281 5.457031 16.742188 0.832031 11.035156 0.832031 Z M 11.035156 0.832031 " clip-rule="nonzero"/></clipPath><clipPath id="a081f76885"><rect x="0" width="22" y="0" height="22"/></clipPath></defs><g clip-path="url(#e5b6813fd2)"><g clip-path="url(#bf5be90069)"><g clip-path="url(#719d030dec)"><g transform="matrix(1, 0, 0, 1, 26, 10)"><g clip-path="url(#6ba8280b3a)"><g clip-path="url(#0f2039cff4)"><g clip-path="url(#d8294d2dfd)"><g clip-path="url(#23e5465fa8)"><path fill="#39a650" d="M 26.011719 -2.820312 L 43.292969 7.351562 L 13.570312 57.839844 L -3.707031 47.671875 Z M 26.011719 -2.820312 " fill-opacity="1" fill-rule="nonzero"/></g></g></g></g></g></g></g></g><g clip-path="url(#e65110fdc1)"><g clip-path="url(#a956e77e79)"><g transform="matrix(1, 0, 0, 1, 5, 10)"><g clip-path="url(#a081f76885)"><g clip-path="url(#1a46e95f3a)"><g clip-path="url(#418e396f8c)"><path fill="#39a650" d="M 0.707031 0.832031 L 21.363281 0.832031 L 21.363281 21.488281 L 0.707031 21.488281 Z M 0.707031 0.832031 " fill-opacity="1" fill-rule="nonzero"/></g></g></g></g></g></g></svg>